<?xml version="1.0" encoding="UTF-8"?>
<svg version="1.1" xmlns="http://www.w3.org/2000/svg" width="16" height="16">
<path d="M0 0 C5.28 0 10.56 0 16 0 C16 5.28 16 10.56 16 16 C10.72 16 5.44 16 0 16 C0 10.72 0 5.44 0 0 Z M2 2 C2 5.96 2 9.92 2 14 C5.96 14 9.92 14 14 14 C14 10.04 14 6.08 14 2 C10.04 2 6.08 2 2 2 Z " fill="#197528" transform="translate(0,0)"/>
<path d="M0 0 C2.64 0 5.28 0 8 0 C8 0.66 8 1.32 8 2 C7.01 2 6.02 2 5 2 C5 3.65 5 5.3 5 7 C4.34 7 3.68 7 3 7 C3 5.35 3 3.7 3 2 C2.01 2 1.02 2 0 2 C0 1.34 0 0.68 0 0 Z " fill="#0E54C4" transform="translate(4,5)"/>
</svg>
